PathFileType	4	(X/Y/Z)	D:\TRACE\spotREDO_2-26-24\spot_Both_Motion_1_8-v60.trc
DataRate	CameraRate	NumFrames	NumMarkers	Units	OrigDataRate	OrigDataStartFrame	OrigNumFrames
100.00	100.00	      13	9	mm	100.00	2626	      7000
Frame#	Time	front left toe			Front right toe			aft left toe			aft right toe			Arm			FL body			FR body			AL Body			AR Body			
		X1	Y1	Z1	X2	Y2	Z2	X3	Y3	Z3	X4	Y4	Z4	X5	Y5	Z5	X6	Y6	Z6	X7	Y7	Z7	X8	Y8	Z8	X9	Y9	Z9	

2626	26.250	-199.26244	157.86635	-454.11069	268.43848	30.25025	-363.53708	-262.64566	18.45148	119.82137	187.30130	19.61204	169.51105	-9.67751	748.58069	-752.81531	-31.03198	603.77948	-450.51215	123.27586	609.17474	-435.23245	-121.22263	545.25018	427.23114	19.13295	550.61438	442.77237	
2627	26.260	-198.73915	156.58957	-453.69254	268.19635	29.77739	-364.04370	-263.00763	18.62840	119.74391	187.10406	19.66293	169.51810	-11.61255	748.64471	-752.82959	-31.37476	603.51074	-451.03687	122.87675	608.90503	-435.95697	-121.64191	545.43573	426.66806	18.81816	550.71729	442.21640	
2628	26.270	-198.63557	152.74535	-452.79535	267.81601	29.65478	-363.90417	-263.26947	18.67930	119.70500	186.59857	19.77682	169.46364	-12.95122	748.65790	-752.88739	-32.09732	603.31909	-451.64011	122.49326	608.78125	-436.38474	-121.83590	545.67645	426.22278	18.65017	550.96075	441.68524	
2629	26.280	-198.94655	146.32562	-452.18884	267.25360	29.84612	-363.98486	-263.52734	18.78319	119.67993	185.99026	19.71330	169.23538	-14.32034	748.85992	-753.02985	-33.06022	603.54919	-452.09363	121.44278	608.92432	-437.03375	-121.80056	545.98541	425.71710	18.65433	551.19104	441.13251	
2630	26.290	-199.32964	137.94917	-451.82950	266.01001	29.71962	-364.67194	-263.92453	19.03116	119.79011	185.61266	19.65644	168.96942	-15.65072	749.53357	-753.14801	-34.26550	603.33429	-452.91391	120.10556	609.14404	-438.06119	-121.62603	546.20575	425.44595	18.74607	551.54578	440.55478	
2631	26.300	-200.05315	127.87127	-451.18442	265.35645	30.26573	-364.87265	-264.28244	19.16634	119.83727	185.28239	19.80399	168.77995	-16.20228	749.77930	-753.39697	-35.92625	603.39520	-453.09656	118.70952	609.61633	-438.65680	-121.44875	546.41492	425.02527	18.98104	552.16095	439.94839	
2632	26.310	-200.62347	116.07727	-450.45465	264.74634	30.21970	-365.27185	-264.74652	19.35452	119.85484	184.95514	19.95732	168.56503	-16.49393	750.08582	-753.45990	-37.97030	603.62799	-453.72379	116.66572	609.93445	-439.73779	-121.27453	546.48718	424.66513	19.12310	552.69507	439.22314	
2633	26.320	-201.10721	104.32602	-449.20633	264.18170	30.49829	-365.28595	-265.15671	19.41926	119.85891	184.80687	20.01720	168.45265	-16.37029	750.31873	-753.85254	-39.38048	603.72809	-454.38992	114.91531	610.20270	-440.53857	-121.41154	546.52319	424.21613	19.11549	552.80243	438.73563	
2634	26.330	-201.48357	93.44140	-447.99158	263.15997	30.13499	-365.81046	-265.49377	19.26833	119.77032	184.38705	19.92560	168.28381	-16.10788	750.40234	-754.19391	-41.75506	603.50665	-455.03317	112.87109	610.48798	-441.52594	-121.88538	546.55573	423.68057	18.66145	552.96936	437.71762	
2635	26.340	-202.35783	82.19105	-446.65622	262.59296	29.72158	-366.06436	-265.87628	19.31216	119.89546	183.79880	19.83808	168.09154	-15.47401	750.30023	-754.67218	-43.88495	603.76501	-455.92905	110.95277	610.60510	-442.43097	-122.56492	546.87555	423.09875	18.10180	553.32251	436.90924	
2636	26.350	-202.77942	71.59501	-445.72620	261.79144	29.38220	-366.27737	-266.96014	19.65455	119.72182	183.10545	19.96556	168.02618	-14.66918	750.23633	-754.92773	-45.49746	603.69318	-456.72134	108.97070	610.70154	-443.62900	-122.74631	546.96765	424.21021	16.77710	553.87164	436.13428	
2637	26.360	-203.95483	61.36417	-445.26477	261.56848	29.31353	-366.19592	-267.68954	19.88455	119.45296	182.79720	20.04541	167.79105	-13.88154	750.22821	-755.30634	-47.01075	603.32770	-457.57098	107.28085	610.70746	-444.62222	-123.99514	547.38678	423.12201	15.79478	554.18268	434.95166	
2638	26.370	-204.14381	51.10618	-445.30661	260.92929	28.98396	-366.47971	-268.00793	20.04186	119.45241	182.38667	20.04391	167.71478	-13.33914	750.33997	-755.90143	-48.81369	603.35846	-458.62784	105.74866	610.60596	-445.72757	-126.55487	548.55609	420.68063	13.82917	554.86060	433.85419	
